<svg width="295" height="54" viewBox="0 0 295 54" fill="none" xmlns="http://www.w3.org/2000/svg">
<path d="M10.6602 14.6113H24.1367V43H10.6602V14.6113ZM0.523438 4.12305H34.2734V12.5898H0.523438V4.12305ZM70.9531 35.2363L63.1895 43H54.5176V35.7344H57.7402V19.6504H54.5176V11.8867H63.1895L70.9531 19.6504V35.2363ZM49.0977 35.7344H52.4668V43H43.7656L36.002 35.2363V19.6504L43.7656 11.8867H52.4668V19.6504H49.0977V35.7344ZM97.291 19.6504H91.5488V11.8867H102.477L110.24 19.6504V46.0762L102.477 53.8984H85.3965L81.5 49.9727V47.1016H97.291V19.6504ZM95.2402 35.7344V39.1621L91.373 43H84.3125L76.5488 35.2363V19.6504L84.3125 11.8867H89.498V35.7344H95.2402ZM128.756 43H123.57L115.807 35.2363V19.6504L123.57 11.8867H128.756V43ZM130.807 30.5195V25.0996H137.633V19.6504H130.807V11.8867H141.793L149.557 19.6504V30.5195H130.807ZM130.807 43V35.7344H148.209V39.1035L144.342 43H130.807ZM168.395 35.2363H176.949V43H163.238L155.445 35.2363V19.6504H152.867V11.8867H155.445V8.51758L168.395 4.12305V35.2363ZM170.445 19.6504V11.8867H177.418V19.6504H170.445ZM181.93 0.0214844H194.879V43H181.93V0.0214844ZM202.643 19.6504H196.93V15.7246L200.738 11.8867H207.828L215.621 19.6504V43H202.643V19.6504ZM234.166 43H228.98L221.217 35.2363V19.6504L228.98 11.8867H234.166V43ZM236.217 30.5195V25.0996H243.043V19.6504H236.217V11.8867H247.203L254.967 19.6504V30.5195H236.217ZM236.217 43V35.7344H253.619V39.1035L249.752 43H236.217ZM281.041 19.6504H275.533V16.252L279.869 11.8867H287.721L294.02 19.1523V27.209H281.041V19.6504ZM260.504 43V11.8867H273.453V43H260.504Z" fill="#217EEB"/>
</svg>
